<svg width="272" height="223" viewBox="0 0 272 223" fill="none" xmlns="http://www.w3.org/2000/svg">
<g filter="url(#filter0_f_29:129)">
<path d="M73.0006 8.10445C72.5006 8.13927 70.8806 8.29594 69.4006 8.45264C39.7006 11.4471 15.3206 30.998 9.38058 56.5727C6.72058 68.0631 8.04058 82.809 12.8006 95.2743C17.8406 108.384 26.3006 119.839 40.7406 133.088C47.5806 139.355 53.4206 144.056 72.5006 158.68C77.1206 162.214 82.2606 166.166 83.9006 167.472C104.381 183.489 118.601 196.929 130.821 211.814L133.421 215H136.061L138.701 214.983L141.301 211.64C152.441 197.329 165.541 184.481 185.001 168.795C188.821 165.696 193.161 162.301 205.541 152.726C224.661 137.893 234.441 129.345 242.361 120.518C255.221 106.155 261.721 92.6106 263.641 76.0715C264.021 72.6592 263.981 64.4941 263.541 61.5345C261.441 47.5197 254.721 35.4723 243.581 25.7752C232.441 16.078 218.581 10.211 202.501 8.40041C198.641 7.98257 190.241 7.98257 186.301 8.40041C171.641 10.0195 158.721 15.1379 147.901 23.6164C144.081 26.6108 139.781 30.8762 137.201 34.2362C136.601 35.0197 136.061 35.6638 136.001 35.6638C135.941 35.6638 135.401 35.0197 134.801 34.2362C132.221 30.8762 127.921 26.6108 124.101 23.6164C113.481 15.2946 100.701 10.1588 86.5406 8.52228C83.6206 8.17409 75.3006 7.93034 73.0006 8.10445Z" fill="#FD0606"/>
</g>
<defs>
<filter id="filter0_f_29:129" x="0" y="0" width="272" height="223" filterUnits="userSpaceOnUse" color-interpolation-filters="sRGB">
<feFlood flood-opacity="0" result="BackgroundImageFix"/>
<feBlend mode="normal" in="SourceGraphic" in2="BackgroundImageFix" result="shape"/>
<feGaussianBlur stdDeviation="4" result="effect1_foregroundBlur_29:129"/>
</filter>
</defs>
</svg>
