<svg width="193" height="135" viewBox="0 0 193 135" fill="none" xmlns="http://www.w3.org/2000/svg">
<path d="M54.5758 64.4587C56.6589 70.3913 54.7361 76.324 50.5699 77.767C46.2435 79.2101 41.2762 75.6826 39.1931 69.9103C36.9498 63.8174 38.8726 57.8847 43.0388 56.4417C47.3652 54.9986 52.4927 58.5261 54.5758 64.4587Z" fill="#3F213B"/>
<path d="M36.9497 77.4463C39.6737 81.6152 39.3533 86.5858 36.3088 88.5098C33.2643 90.4339 28.6174 88.6702 25.8934 84.5013C23.1693 80.3325 23.4898 75.3619 26.5343 73.4378C29.5788 71.5137 34.2257 73.4378 36.9497 77.4463Z" fill="#3F213B"/>
<path d="M64.9912 64.4589C62.9081 70.3916 64.8309 76.3242 68.9971 77.7672C73.3235 79.2103 78.2908 75.6828 80.3739 69.9105C82.457 63.9779 80.5341 58.0453 76.368 56.6022C72.2018 54.9988 67.0742 58.5263 64.9912 64.4589Z" fill="#3F213B"/>
<path d="M82.6172 77.4463C79.8932 81.6152 80.2137 86.5858 83.2582 88.5098C86.3027 90.4339 90.9495 88.6702 93.6736 84.5013C96.3976 80.3325 96.0771 75.3619 93.0326 73.4378C89.9881 71.5137 85.3413 73.4378 82.6172 77.4463Z" fill="#3F213B"/>
<path d="M59.8637 81.936C45.1219 81.936 33.2644 98.7718 33.2644 111.118C33.2644 121.22 41.2762 115.768 52.1723 113.523C52.0121 113.363 51.8519 113.202 51.6916 113.202C38.0715 103.582 44.481 95.2443 44.481 95.2443C46.0833 92.6789 48.9676 90.9151 52.3326 90.9151C55.5373 90.9151 58.4216 92.6789 60.0239 95.084C61.6263 92.5185 64.5106 90.9151 67.7153 90.9151C70.2791 90.9151 72.5224 92.0375 74.285 93.6409C74.285 93.6409 74.4453 93.8013 74.7657 94.1219C74.7657 94.1219 74.7657 94.2823 74.926 94.2823C74.926 94.4426 75.0862 94.4426 75.0862 94.603C75.5669 95.2443 76.0476 96.046 76.2079 96.8477C76.2079 97.0081 76.2079 97.0081 76.3681 97.1684V97.3288C77.4898 100.856 77.1693 106.468 68.5165 113.363C68.3563 113.523 68.196 113.523 68.196 113.684C78.9319 116.089 86.6233 121.22 86.6233 111.118C86.463 98.7718 74.6055 81.936 59.8637 81.936Z" fill="#3F213B"/>
<path d="M121.572 134.048C120.451 134.048 119.65 133.727 119.01 133.087C118.369 132.446 118.049 131.645 118.049 130.524V110.666C118.369 110.666 118.85 110.505 119.33 110.505C119.971 110.345 120.451 110.345 121.092 110.345C122.373 110.345 123.334 110.505 123.814 110.986C124.455 111.466 124.615 112.267 124.615 113.548V128.763H133.423C133.584 129.083 133.744 129.403 133.904 129.884C134.064 130.364 134.064 130.845 134.064 131.325C134.064 132.286 133.904 132.927 133.423 133.407C132.943 133.888 132.462 134.048 131.662 134.048H121.572ZM153.923 124.599C153.923 126.2 153.763 127.481 153.282 128.763C152.802 130.044 152.161 131.005 151.2 131.966C150.239 132.766 149.278 133.407 147.997 133.888C146.716 134.368 145.435 134.528 143.833 134.528C142.232 134.528 140.951 134.368 139.669 133.888C138.388 133.407 137.427 132.766 136.466 131.966C135.505 131.165 134.865 130.044 134.384 128.763C133.904 127.481 133.744 126.2 133.744 124.599C133.744 123.157 134.064 121.716 134.544 120.435C135.025 119.154 135.666 118.193 136.626 117.232C137.587 116.431 138.548 115.79 139.829 115.31C141.111 114.829 142.392 114.669 143.993 114.669C145.595 114.669 146.876 114.829 148.157 115.31C149.439 115.79 150.399 116.431 151.36 117.232C152.321 118.032 152.962 119.154 153.442 120.435C153.603 121.876 153.923 123.157 153.923 124.599ZM143.833 119.794C142.712 119.794 141.911 120.275 141.271 121.075C140.63 121.876 140.31 123.157 140.31 124.599C140.31 126.2 140.63 127.481 141.271 128.282C141.911 129.083 142.712 129.563 143.833 129.563C144.954 129.563 145.755 129.083 146.396 128.282C147.036 127.481 147.357 126.2 147.357 124.599C147.357 122.997 147.036 121.876 146.396 121.075C145.755 120.275 144.954 119.794 143.833 119.794ZM169.137 114.99C170.098 114.99 170.739 115.15 171.379 115.63C172.02 115.951 172.34 116.751 172.34 117.552C172.34 118.033 172.18 118.513 172.02 119.314C171.86 120.114 171.54 120.915 171.219 122.036C170.899 122.997 170.579 124.118 170.258 125.239C169.938 126.36 169.458 127.481 169.137 128.442C168.657 129.403 168.336 130.524 167.856 131.325C167.376 132.286 167.055 132.927 166.735 133.567C166.415 133.888 165.774 134.048 165.133 134.208C164.493 134.368 163.692 134.528 162.731 134.528C161.77 134.528 160.809 134.368 160.169 134.208C159.368 133.888 158.888 133.567 158.727 132.927C158.567 132.446 158.247 131.966 157.927 131.165C157.606 130.364 157.286 129.563 156.966 128.603C156.645 127.642 156.165 126.681 155.845 125.56C155.524 124.439 155.044 123.478 154.724 122.357C154.403 121.236 154.083 120.275 153.763 119.314C153.442 118.353 153.282 117.392 153.122 116.591C153.442 116.271 153.923 115.951 154.563 115.63C155.204 115.31 155.845 115.15 156.485 115.15C157.446 115.15 158.087 115.31 158.727 115.63C159.368 115.951 159.688 116.751 160.009 117.712L161.45 123.638C161.77 124.759 161.93 125.88 162.251 126.841C162.571 127.802 162.731 128.442 162.891 129.083H163.051C163.532 127.161 164.012 125.079 164.653 122.837C165.133 120.595 165.614 118.193 166.094 116.111C166.575 115.951 167.055 115.63 167.536 115.63C168.176 114.99 168.657 114.99 169.137 114.99ZM178.426 127.321C178.746 128.282 179.387 128.923 180.188 129.243C180.988 129.563 181.949 129.724 183.07 129.724C184.192 129.724 185.152 129.563 186.113 129.243C187.074 128.923 187.875 128.603 188.516 128.282C188.996 128.603 189.316 128.923 189.477 129.403C189.797 129.884 189.957 130.364 189.957 130.845C189.957 131.485 189.797 131.966 189.477 132.446C189.156 132.927 188.676 133.247 188.035 133.567C187.395 133.888 186.594 134.048 185.633 134.208C184.672 134.368 183.711 134.368 182.75 134.368C181.309 134.368 179.867 134.208 178.586 133.727C177.305 133.247 176.184 132.606 175.223 131.806C174.262 131.005 173.461 129.884 172.981 128.603C172.5 127.321 172.18 125.88 172.18 124.118C172.18 122.357 172.5 120.915 172.981 119.794C173.461 118.513 174.262 117.552 175.223 116.751C176.184 115.951 177.145 115.47 178.266 114.99C179.387 114.669 180.668 114.509 181.789 114.509C183.07 114.509 184.352 114.669 185.473 115.15C186.594 115.63 187.555 116.111 188.355 116.911C189.156 117.552 189.797 118.513 190.277 119.474C190.758 120.435 190.918 121.556 190.918 122.677C190.918 123.478 190.598 124.278 190.117 124.599C189.637 125.079 188.996 125.399 188.035 125.56L178.426 127.321ZM181.789 119.474C180.828 119.474 180.028 119.794 179.387 120.435C178.746 121.075 178.266 121.876 178.266 122.997L184.832 121.876C184.832 121.556 184.672 121.396 184.672 121.075C184.672 120.755 184.352 120.595 184.192 120.275C184.031 120.114 183.711 119.794 183.231 119.794C182.59 119.634 182.27 119.474 181.789 119.474Z" fill="#3F213B"/>
<path d="M116.608 105.06C115.487 105.06 114.526 104.9 113.565 104.74C112.604 104.579 111.803 104.419 111.002 104.099V116.431C110.522 116.591 109.721 116.751 108.76 116.911C107.799 117.071 106.678 117.071 105.557 117.071C103.155 117.071 101.553 116.751 100.432 115.95C99.4714 115.149 98.8308 113.708 98.8308 111.466V77.1934C98.8308 75.9122 99.1511 74.9513 99.6316 73.9904C100.112 73.1896 100.913 72.3888 101.874 71.7482C103.315 70.7873 105.237 69.9866 107.479 69.5061C109.721 68.8655 112.284 68.7054 115.166 68.7054C118.049 68.7054 120.611 69.0257 122.854 69.8264C125.256 70.467 127.178 71.5881 128.939 73.0294C130.701 74.4708 131.982 76.3926 132.783 78.6348C133.744 80.8769 134.224 83.5995 134.224 86.6424C134.224 89.6852 133.744 92.2477 132.943 94.4898C131.982 96.7319 130.861 98.6537 129.26 100.255C127.658 101.857 125.736 102.978 123.654 103.779C121.572 104.579 119.17 105.06 116.608 105.06ZM114.846 95.6108C117.248 95.6108 119.01 94.8101 120.291 93.3687C121.572 91.9274 122.213 89.6852 122.213 86.6424C122.213 83.5995 121.572 81.5175 120.451 80.0761C119.33 78.7949 117.569 77.9942 115.326 77.9942C114.366 77.9942 113.565 78.1543 112.924 78.3145C112.284 78.4746 111.323 78.7949 110.842 79.1152V94.6499C111.483 94.9702 111.963 95.1304 112.604 95.2906C113.405 95.4507 114.045 95.6108 114.846 95.6108ZM146.396 91.6071C147.036 93.3687 148.158 94.4898 149.759 95.1304C151.361 95.771 152.962 96.0913 154.884 96.0913C156.806 96.0913 158.728 95.771 160.489 95.2906C162.251 94.8101 163.692 94.1695 164.813 93.5289C165.614 94.0093 166.255 94.6499 166.735 95.4507C167.216 96.2515 167.536 97.2124 167.536 98.1733C167.536 99.2943 167.216 100.415 166.575 101.216C165.934 102.017 164.973 102.818 163.852 103.298C162.731 103.939 161.29 104.259 159.528 104.579C157.927 104.9 156.005 104.9 154.083 104.9C151.361 104.9 148.798 104.579 146.396 103.779C143.994 102.978 141.912 101.857 140.31 100.255C138.548 98.6537 137.267 96.7319 136.306 94.4898C135.345 92.0875 134.865 89.3649 134.865 86.322C134.865 83.2792 135.345 80.5566 136.306 78.3145C137.267 76.0723 138.709 74.3107 140.31 72.8693C141.912 71.4279 143.833 70.3069 145.915 69.6663C147.997 69.0257 150.24 68.7054 152.322 68.7054C154.884 68.7054 157.126 69.0257 159.048 69.8264C161.13 70.6272 162.892 71.5881 164.333 72.8693C165.774 74.1505 166.895 75.752 167.696 77.5137C168.497 79.2754 168.817 81.3573 168.817 83.4393C168.817 85.0408 168.337 86.322 167.536 87.1228C166.575 87.9236 165.454 88.5642 163.852 88.7243L146.396 91.6071ZM152.322 77.5137C150.56 77.5137 149.118 77.9942 147.837 79.1152C146.716 80.2363 145.915 81.6776 145.755 83.7596L157.767 81.8378C157.767 81.3573 157.607 80.8769 157.286 80.3964C156.966 79.916 156.646 79.4355 156.325 78.9551C155.845 78.4746 155.364 78.1543 154.724 77.9942C154.083 77.834 153.122 77.5137 152.322 77.5137ZM183.551 105.06C179.387 105.06 176.184 104.099 174.102 102.177C171.86 100.255 170.739 97.2124 170.739 93.0484V61.8188C171.219 61.6587 172.02 61.4985 172.981 61.3384C173.942 61.1782 174.903 61.0181 176.024 61.0181C178.266 61.0181 180.028 61.3384 180.989 62.1391C181.95 62.9399 182.59 64.3813 182.59 66.6234V70.467H191.879C192.199 70.9475 192.359 71.5881 192.68 72.3888C193 73.1896 193 73.9904 193 74.9513C193 76.5528 192.68 77.834 191.879 78.4746C191.078 79.2754 190.117 79.5957 188.996 79.5957H182.59V92.0875C182.59 93.3687 182.91 94.1695 183.711 94.6499C184.512 95.1304 185.633 95.4507 186.914 95.4507C187.555 95.4507 188.356 95.4507 189.156 95.2906C189.957 95.1304 190.598 94.9702 191.078 94.8101C191.559 95.2905 191.879 95.9312 192.199 96.5718C192.52 97.2124 192.68 98.0131 192.68 98.8139C192.68 100.576 192.039 102.017 190.598 103.138C189.317 104.419 187.074 105.06 183.551 105.06Z" fill="#DF6E2F"/>
</svg>
